HIERARCHY
ROOT Hips
{
 OFFSET 0.000000 0.000000 0.000000
 CHANNELS 6 Xposition Yposition Zposition Yrotation Xrotation Zrotation
 JOINT Chest
 {
  OFFSET 0.000000 9.585900 0.002600
  CHANNELS 3 Yrotation Xrotation Zrotation
  JOINT Chest2
  {
   OFFSET 0.000000 9.601200 -0.005300
   CHANNELS 3 Yrotation Xrotation Zrotation
   JOINT Chest3
   {
    OFFSET 0.000000 9.561800 0.000000
    CHANNELS 3 Yrotation Xrotation Zrotation
    JOINT Chest4
    {
     OFFSET 0.000000 9.552100 0.000000
     CHANNELS 3 Yrotation Xrotation Zrotation
     JOINT Neck
     {
      OFFSET 0.000000 14.453000 0.000000
      CHANNELS 3 Yrotation Xrotation Zrotation
      JOINT Head
      {
       OFFSET 0.000000 8.936500 -0.011300
       CHANNELS 3 Yrotation Xrotation Zrotation
       End Site
       {
        OFFSET 0.000000 17.073600 -0.006000
       }
      }
     }
     JOINT RightCollar
     {
      OFFSET -2.921100 9.558500 0.000000
      CHANNELS 3 Yrotation Xrotation Zrotation
      JOINT RightShoulder
      {
       OFFSET -13.519700 0.000000 0.000000
       CHANNELS 3 Yrotation Xrotation Zrotation
       JOINT RightElbow
       {
        OFFSET 0.000000 -29.696600 0.000000
        CHANNELS 3 Yrotation Xrotation Zrotation
        JOINT RightWrist
        {
         OFFSET 0.000000 -24.004700 0.000000
         CHANNELS 3 Yrotation Xrotation Zrotation
         End Site
         {
          OFFSET 0.000000 -17.728500 0.000000
         }
        }
       }
      }
     }
     JOINT LeftCollar
     {
      OFFSET 2.921100 9.558500 0.000000
      CHANNELS 3 Yrotation Xrotation Zrotation
      JOINT LeftShoulder
      {
       OFFSET 13.519700 0.000000 0.000000
       CHANNELS 3 Yrotation Xrotation Zrotation
       JOINT LeftElbow
       {
        OFFSET 0.000000 -29.696600 0.000000
        CHANNELS 3 Yrotation Xrotation Zrotation
        JOINT LeftWrist
        {
         OFFSET 0.000000 -24.004700 0.000000
         CHANNELS 3 Yrotation Xrotation Zrotation
         End Site
         {
          OFFSET 0.000000 -17.728500 0.000000
         }
        }
       }
      }
     }
    }
   }
  }
 }
 JOINT RightHip
 {
  OFFSET -7.771700 -0.012900 -0.001300
  CHANNELS 3 Yrotation Xrotation Zrotation
  JOINT RightKnee
  {
   OFFSET 0.000000 -40.869800 0.001200
   CHANNELS 3 Yrotation Xrotation Zrotation
   JOINT RightAnkle
   {
    OFFSET 0.000000 -39.717900 0.002100
    CHANNELS 3 Yrotation Xrotation Zrotation
    JOINT RightToe
    {
     OFFSET 0.000000 -4.965400 11.033500
     CHANNELS 3 Yrotation Xrotation Zrotation
     End Site
     {
      OFFSET 0.000000 -1.423100 5.872300
     }
    }
   }
  }
 }
 JOINT LeftHip
 {
  OFFSET 7.771700 -0.012900 -0.001300
  CHANNELS 3 Yrotation Xrotation Zrotation
  JOINT LeftKnee
  {
   OFFSET 0.000000 -40.869800 0.001200
   CHANNELS 3 Yrotation Xrotation Zrotation
   JOINT LeftAnkle
   {
    OFFSET 0.000000 -39.717900 0.002100
    CHANNELS 3 Yrotation Xrotation Zrotation
    JOINT LeftToe
    {
     OFFSET 0.000000 -4.965400 11.033500
     CHANNELS 3 Yrotation Xrotation Zrotation
     End Site
     {
      OFFSET 0.000000 -1.423100 5.872300
     }
    }
   }
  }
 }
}
MOTION
Frames: 6
Frame Time: 0.008333
-24.260023 57.939978 13.355034 177.776376 -49.031160 -3.508042 3.329518 22.503522 2.827399 1.675915 12.873975 1.456318 2.159533 16.099272 1.889047 1.675266 12.898554 1.456286 0.427758 16.702875 3.696206 -0.471735 -4.734372 6.653451 3.921747 2.725595 0.459313 -2.045366 -20.165494 -7.851296 -31.298925 -22.828653 81.882891 -5.928370 -3.437471 -38.694440 -10.039094 -0.436315 -1.813625 -5.285036 -21.103296 12.213954 25.799413 -15.867883 -74.235531 17.500133 -12.638942 27.038687 1.676706 -22.756555 -3.072973 -34.474314 72.879218 -38.984918 6.354796 -12.902836 11.446034 0.086663 0.019364 0.016238 -4.078094 -20.053608 6.749187 87.283952 83.999324 87.049290 0.018000 -22.468949 -16.224739 -0.061835 0.087560 -0.017408
-24.259717 57.939443 13.349408 177.779477 -49.042546 -3.500579 3.324842 22.504537 2.822121 1.675326 12.872794 1.454249 2.158708 16.101277 1.887124 1.671452 12.896292 1.453465 0.436737 16.680173 3.657016 -0.456431 -4.756078 6.601737 3.934324 2.714417 0.465597 -2.036144 -20.152213 -7.860236 -31.293664 -22.841633 81.868221 -5.912210 -3.405575 -38.696631 -10.038080 -0.448914 -1.812467 -5.289190 -21.106595 12.223471 25.812330 -15.846075 -74.219472 17.485004 -12.612369 27.081546 1.673961 -22.745922 -3.081434 -34.489913 72.891635 -39.005781 6.357604 -12.934104 11.449549 0.089457 -0.016251 0.021042 -4.054968 -20.042354 6.751344 87.290803 84.028582 87.060892 0.007410 -22.476025 -16.212977 -0.053639 0.086220 -0.012236
-24.262175 57.938532 13.343604 177.775300 -49.051678 -3.476481 3.320145 22.493293 2.807358 1.673556 12.883223 1.451559 2.157053 16.108882 1.883658 1.674467 12.884617 1.452197 0.441103 16.659249 3.618271 -0.441720 -4.776801 6.547503 3.940235 2.705872 0.472046 -1.985211 -20.163271 -7.874584 -31.310787 -22.851209 81.823921 -5.920948 -3.371786 -38.692001 -10.042196 -0.441986 -1.812353 -5.273507 -21.129737 12.226190 25.815523 -15.818977 -74.194920 17.476301 -12.578708 27.096431 1.680513 -22.738739 -3.105969 -34.481023 72.911923 -39.004199 6.358854 -12.969957 11.453339 0.073154 -0.013763 0.018721 -4.022245 -20.034862 6.746700 87.327114 84.060103 87.082377 0.004977 -22.482738 -16.179974 -0.063555 0.087560 -0.014674
-24.263901 57.937205 13.338047 177.774956 -49.057236 -3.464623 3.316628 22.490959 2.801897 1.672853 12.881456 1.451376 2.155325 16.107199 1.881134 1.673537 12.883423 1.451437 0.442127 16.658632 3.601209 -0.416860 -4.818155 6.465417 3.973149 2.649668 0.476537 -1.976513 -20.122732 -7.882709 -31.317440 -22.852334 81.783194 -5.921371 -3.334067 -38.682564 -10.041166 -0.459238 -1.813142 -5.244878 -21.122323 12.210498 25.813822 -15.798757 -74.157789 17.468015 -12.540458 27.078241 1.684946 -22.737931 -3.122872 -34.471122 72.933701 -38.997549 6.357807 -12.986067 11.457915 0.060301 -0.016097 0.013596 -3.998028 -20.030157 6.747723 87.340320 84.082776 87.096873 -0.008108 -22.488741 -16.170026 -0.053446 0.086144 -0.006797
-24.263099 57.935995 13.332593 177.805208 -49.061251 -3.495023 3.303480 22.486960 2.818613 1.669302 12.885006 1.448096 2.153957 16.100125 1.883085 1.680094 12.864832 1.457137 0.433872 16.675432 3.577247 -0.391927 -4.859585 6.382774 3.968555 2.672142 0.470052 -1.962989 -20.141459 -7.873687 -31.314130 -22.849134 81.745524 -5.932607 -3.319608 -38.672915 -10.040489 -0.459964 -1.822192 -5.208619 -21.113105 12.185051 25.785435 -15.781904 -74.129208 17.471405 -12.523060 27.077927 1.675659 -22.735853 -3.121510 -34.485441 72.943929 -39.000402 6.371833 -13.023822 11.464677 0.037773 -0.007377 0.005763 -4.001411 -20.024917 6.765704 87.388187 84.093773 87.145171 -0.037573 -22.480299 -16.158537 -0.041288 0.065600 0.005035
-24.264782 57.934443 13.327127 177.813769 -49.063596 -3.496943 3.298636 22.485326 2.818174 1.668834 12.884031 1.449313 2.156631 16.091522 1.887443 1.680142 12.862041 1.455730 0.436129 16.662986 3.543745 -0.377263 -4.888098 6.318867 3.973679 2.654427 0.468383 -2.012906 -20.143117 -7.813623 -31.258319 -22.852495 81.678435 -5.937380 -3.296545 -38.660326 -10.041966 -0.472017 -1.819422 -5.159700 -21.103836 12.153080 25.739281 -15.772731 -74.116160 17.490196 -12.519497 27.094480 1.674706 -22.732998 -3.127820 -34.464618 72.968708 -38.987188 6.390889 -13.063051 11.459748 0.042072 -0.021481 0.015544 -3.982797 -20.027108 6.780663 87.459691 84.109658 87.215568 -0.063155 -22.485335 -16.141980 -0.037113 0.062952 0.009448
